/* XPM */
static char *result[] = {
/* columns rows colors chars-per-pixel */
"32 32 256 2 ",
"   c None",
".  c #1C1D1E",
"X  c #1D1D1E",
"o  c #1C1D1F",
"O  c #1D1E1E",
"+  c #1C1E1F",
"@  c #1D1E1F",
"#  c #1F1F1E",
"$  c #1E1E1F",
"%  c #1B1D21",
"&  c #1D1E20",
"*  c #1C1E21",
"=  c #181F26",
"-  c #151F2A",
";  c #1D2021",
":  c #1B2024",
">  c #1A2025",
",  c #1C2025",
"<  c #1D2126",
"1  c #13212D",
"2  c #12212E",
"3  c #16222D",
"4  c #17232F",
"5  c #17242F",
"6  c #182028",
"7  c #1D232A",
"8  c #1A242A",
"9  c #1A252D",
"0  c #1B272D",
"q  c #18262E",
"w  c #1C252D",
"e  c #0F2031",
"r  c #0C2033",
"t  c #0D2133",
"y  c #0C2134",
"u  c #0C2234",
"i  c #0C2235",
"p  c #0C2335",
"a  c #0D2335",
"s  c #0C2336",
"d  c #0C2337",
"f  c #0F2435",
"g  c #0D2437",
"h  c #0D2438",
"j  c #0D2538",
"k  c #0E2538",
"l  c #0F2738",
"z  c #0E2639",
"x  c #0F2739",
"c  c #0E263A",
"v  c #0F263A",
"b  c #0F273A",
"n  c #0E273B",
"m  c #0F2839",
"M  c #0F283A",
"N  c #0F283B",
"B  c #0F283C",
"V  c #122433",
"C  c #192631",
"Z  c #132837",
"A  c #1C2933",
"S  c #182A34",
"D  c #1D2B36",
"F  c #1A2C36",
"G  c #10283B",
"H  c #142A38",
"J  c #14293B",
"K  c #132C3A",
"L  c #162C39",
"P  c #10293C",
"I  c #10293D",
"U  c #11293D",
"Y  c #112B3C",
"T  c #102A3D",
"R  c #112A3D",
"E  c #122B3D",
"W  c #10293E",
"Q  c #112A3E",
"!  c #112B3E",
"~  c #112B3F",
"^  c #122B3E",
"/  c #122C3D",
"(  c #122C3E",
")  c #132D3E",
"_  c #122C3F",
"`  c #122D3F",
"'  c #132D3F",
"]  c #142D3C",
"[  c #142D3D",
"{  c #152E3C",
"}  c #152F3C",
"|  c #142E3D",
" . c #152F3D",
".. c #162F3D",
"X. c #142F3E",
"o. c #152F3E",
"O. c #142E3F",
"+. c #142F3F",
"@. c #192A38",
"#. c #1A2B39",
"$. c #192F39",
"%. c #1B2C3A",
"&. c #16303C",
"*. c #15303E",
"=. c #16303E",
"-. c #16313E",
";. c #16313F",
":. c #16323F",
">. c #1C303E",
",. c gray13",
"<. c #242423",
"1. c #272827",
"2. c #25282D",
"3. c #2A2929",
"4. c #292A28",
"5. c #2E2D2C",
"6. c #272D32",
"7. c #282F34",
"8. c #323330",
"9. c #3A3C3A",
"0. c #112B40",
"q. c #122C40",
"w. c #122D40",
"e. c #122C41",
"r. c #132D41",
"t. c #132E40",
"y. c #132E42",
"u. c #132E43",
"i. c #142E40",
"p. c #142F40",
"a. c #142F41",
"s. c #142F42",
"d. c #142F43",
"f. c #132F45",
"g. c #142F44",
"h. c #142F45",
"j. c #153140",
"k. c #143041",
"l. c #153041",
"z. c #153141",
"x. c #163140",
"c. c #173140",
"v. c #163141",
"b. c #163240",
"n. c #173240",
"m. c #163241",
"M. c #173341",
"N. c #143042",
"B. c #153042",
"V. c #153142",
"C. c #143043",
"Z. c #153043",
"A. c #153143",
"S. c #163142",
"D. c #163143",
"F. c #163242",
"G. c #173342",
"H. c #163243",
"J. c #173343",
"K. c #173442",
"L. c #173443",
"P. c #153144",
"I. c #163244",
"U. c #163344",
"Y. c #173344",
"T. c #163245",
"R. c #163345",
"E. c #173345",
"W. c #143146",
"Q. c #153246",
"!. c #153247",
"~. c #163246",
"^. c #173444",
"/. c #173445",
"(. c #173545",
"). c #1B3142",
"_. c #183442",
"`. c #183542",
"'. c #183642",
"]. c #183444",
"[. c #183544",
"{. c #183445",
"}. c #183545",
"|. c #1A3544",
" X c #193644",
".X c #183645",
"XX c #193645",
"oX c #193745",
"OX c #183446",
"+X c #183546",
"@X c #183646",
"#X c #193646",
"$X c #193746",
"%X c #153248",
"&X c #163348",
"*X c #163448",
"=X c #173448",
"-X c #16344C",
";X c #17354C",
":X c #18354A",
">X c #18364B",
",X c #1C3448",
"<X c #18374C",
"1X c #18364D",
"2X c #19364D",
"3X c #19384E",
"4X c #19384F",
"5X c #1A394F",
"6X c #193850",
"7X c #1A3850",
"8X c #1A3A51",
"9X c #1B3A51",
"0X c #35424F",
"qX c #374450",
"wX c #454646",
"eX c #4A4846",
"rX c #4A5357",
"tX c #42515E",
"yX c #595A54",
"uX c #485C6E",
"iX c #575F65",
"pX c #616566",
"aX c #6A6C65",
"sX c #6A6D66",
"dX c #636769",
"fX c #6E7069",
"gX c #737272",
"hX c #767574",
"jX c #536C80",
"kX c #888682",
"lX c #8A8983",
"zX c #8F8F87",
"xX c #878788",
"cX c #8D8C88",
"vX c #8F8E8C",
"bX c #8C8C8E",
"nX c #908F8A",
"mX c #8D9087",
"MX c #92918E",
"NX c #92968C",
"BX c #959493",
"VX c #999C91",
"CX c gray60",
"ZX c #9F9F9D",
"AX c #9DA095",
"SX c #ABAFA2",
"DX c #ADAEA1",
"FX c #ACB0A4",
"GX c #AFB1A6",
"HX c #AEB2A6",
"JX c #B2B6AA",
"KX c #BBBFB2",
"LX c #BCC1B4",
"PX c #BFC2B4",
"IX c #BEC2B5",
"UX c #C4C9BB",
/* pixels */
"                <.DXmX                                          ",
"                1.FXLXyX,.                                      ",
"                  aXJXUXKXAXfX4.                                ",
"                    9.sXNXHXIXSX                                ",
"                        # 8.VXPX1.                              ",
"                        5.hXzXGXZXgX                            ",
"                        eXkXnXMXBXCX3.                          ",
"                      O wXlXcXvXxXbX2.O                         ",
"                  O 9 H >.rXpXdXiXtX5X,X7                       ",
"                + S  .K } ] | c.I.=X:X3X9XA                     ",
"              X $.=.:.-.*.o.X.+.D.R.=X<X4X8XD                   ",
"              0 ;.;.:.K.x.J.v.F.p.A.T.=X>X3X7X<                 ",
"            ; ..n.b.G.K.m.L.z.v.z.l.N.~.*X>X6X).                ",
"            8 ;.b._.'.|.[.].Y.S.H.D.B.Z.Q.&X;X2X&               ",
"            F M.n. X[.[.}.}.{.I.H.H.P.C.d.g.%X1Xw               ",
"          X &.`._.oXXX#X.X}.OX+XI.I.A.C.s.y.W.-X%.              ",
"          @ ..b.XXG..X$X#X/.(./.I.A.s.s.r.w.u.!.#.              ",
"          @ { m.L.^..X#X@X+X/.U.R.Z.a.` q.e.e.h.@.              ",
"          X L x.K.L.[.}.E.U.U.H.A.a.t.! ~ 0._ f.C               ",
"            q j.x.S.J.Y.H.H.H.A.a.t.^ T Q ! ~ q.,               ",
"            : [ +.m.l.z.V.k.B.t.` ! R P I T R J X               ",
"              5 ) +.O.O.i.t.' ( ! P B N P W U >                 ",
"              + Z E / / Y E P G b c n b N B 4                   ",
"                * V m M l x j h j k z c v 3                     ",
"                  o 1 a i p u s d g g f 6                       ",
"                      % - e r y t 2 = o                         ",
"                            . . .                               ",
"                                                                ",
"                                                                ",
"                                                                ",
"                                                                ",
"                                                                "
};
