/* XPM */
static char *result[] = {
/* columns rows colors chars-per-pixel */
"32 32 168 2 ",
"   c None",
".  c #221F1D",
"X  c #1D1F23",
"o  c #1D2126",
"O  c #1C262C",
"+  c #1C2634",
"@  c #1C2B36",
"#  c #1B2D3A",
"$  c #1B313C",
"%  c #2D2C2B",
"&  c #342E28",
"*  c #393126",
"=  c #393328",
"-  c #2D383B",
";  c #353B39",
":  c #4A3E2E",
">  c #464438",
",  c #554C33",
"<  c #62543B",
"1  c #1A3341",
"2  c #1A3A4C",
"3  c #193B53",
"4  c #1C365A",
"5  c #1A404F",
"6  c #19475E",
"7  c #3C4C4E",
"8  c #184A63",
"9  c #174C6F",
"0  c #134679",
"q  c #154B7F",
"w  c #175B73",
"e  c #165C7E",
"r  c #766440",
"t  c #86744D",
"y  c #8D7857",
"u  c #8B8450",
"i  c #9A8859",
"p  c #A88958",
"a  c #A29E5D",
"s  c #B8955B",
"d  c #BD9A65",
"f  c #C3A166",
"g  c #DEAF6C",
"h  c #CCA978",
"j  c #E3B36E",
"k  c #E4B571",
"l  c #E5B877",
"z  c #EBB972",
"x  c #F2BF75",
"c  c #F5C275",
"v  c #FAC476",
"b  c #F5C37B",
"n  c #FECB7A",
"m  c #E0D57C",
"M  c #FFD37D",
"N  c #FFD97E",
"B  c #164E82",
"V  c #165184",
"C  c #145D83",
"Z  c #145C8C",
"A  c #0E4A97",
"S  c #105D99",
"D  c #13618C",
"F  c #136D8E",
"G  c #14748F",
"H  c #126B93",
"J  c #166F9A",
"K  c #157699",
"L  c #1369A5",
"P  c #117CAA",
"I  c #0D68C8",
"U  c #0C73C7",
"Y  c #0A7BD7",
"T  c #0676EA",
"R  c #057EF4",
"E  c #027AFE",
"W  c #1186AF",
"Q  c #1088BC",
"!  c #5C8FB6",
"~  c #5393BC",
"^  c #6294B4",
"/  c #759FB2",
"(  c #75A2B2",
")  c #7EADB8",
"_  c #0994DE",
"`  c #0BB2DE",
"'  c #088FE2",
"]  c #099DE9",
"[  c #0587F4",
"{  c #0D87F4",
"}  c #058DF4",
"|  c #0383FB",
" . c #038BFD",
".. c #0494FD",
"X. c #049BFE",
"o. c #1A9BFA",
"O. c #2F98E9",
"+. c #269CF5",
"@. c #0AA4EF",
"#. c #0AB4EA",
"$. c #07A0F7",
"%. c #05A4FF",
"&. c #06ABFF",
"*. c #08ACFE",
"=. c #16AEFA",
"-. c #0AB2F4",
";. c #06B4FF",
":. c #0AB5FF",
">. c #07BBFF",
",. c #0ABEFC",
"<. c #31A7F5",
"1. c #4695C9",
"2. c #5294C0",
"3. c #459DD5",
"4. c #519DD6",
"5. c #4AACDF",
"6. c #57A4D7",
"7. c #60B9DD",
"8. c #62B4E0",
"9. c #0CC3EA",
"0. c #0AC6F5",
"q. c #07C2FF",
"w. c #08C4FF",
"e. c #08CCFF",
"r. c #13C3FE",
"t. c #1AC7FA",
"y. c #09D3FF",
"u. c #2FCEF9",
"i. c #3CC3F7",
"p. c #27D3F3",
"a. c #72DDDB",
"s. c #55CAEE",
"d. c #65D2F2",
"f. c #9CA1A2",
"g. c #87B7BC",
"h. c #95BBB6",
"j. c #B0B3AC",
"k. c #A4B0B0",
"l. c #BBBCB0",
"z. c #D1AE84",
"x. c #C7BE86",
"c. c #C7BC97",
"v. c #D1BD9E",
"b. c #B6C9AC",
"n. c #A2C2BD",
"m. c #B6CEBA",
"M. c #E8CC8F",
"N. c #FFD383",
"B. c #FFDC81",
"V. c #FFE383",
"C. c #FFEB86",
"Z. c #FFEE89",
"A. c #FEF48C",
"S. c #FFFC8F",
"D. c #FFFD91",
"F. c #D8EFAD",
"G. c #87BBCA",
"H. c #95C6C1",
"J. c #98CBC6",
"K. c #9ACDC6",
"L. c #92D4C1",
"P. c #93CBD1",
"I. c #9FDDDD",
"U. c #A6DACE",
"Y. c #B2DCCC",
"T. c #A5DAD0",
"R. c #AADFD2",
"E. c #86E3CA",
/* pixels */
"              Z Q F @                       @ G W e             ",
"            D >.>.;.] o                   o 9.y.e.w.C           ",
"            %.&.%.%.&.]                   9.y.y.e.e.*.          ",
"            *.X.&.;.;.&.V               K y.y.e.w.>.&.          ",
"            P ;.;.;.;.%._   J e         ` e.e.>.;.X.S           ",
"            1 ;.;.;.;.%.'   1 e.H       #.w.q.;.%...#           ",
"              8 ;.;.;.%.}   + e.>.Z     0.>.;.&...3             ",
"                L ;.;.;.>.w.H e.>.%.F 0.&.>.&...V               ",
"                  *.;.;.>.;.*.q.,.X.w.&.%. ...]                 ",
"                  $ q.y.y.e.>.e.q.>.w.;.;.&.%.#                 ",
"                  w y.u.E.a.y.y.e.e.w.a.( =.&.8                 ",
"                  e.p.D.D.S.S.E.e.L.V.B.N.N.=.@.                ",
"                $ y.Y.A.a S.A.A.C.C.V.N.i n 7.*.O               ",
"                6 e.A.x.7 A.S.A.N C.N M - h v.&.2               ",
"                8 r.Z.7 7 C.A.N N N N n 5 y k %.3               ",
"                2 ,.C.i > N N N N N N v ; p g %.@               ",
"                  :.B.V.N V.N N M n v x j j z.$.                ",
"                  9 G.N N N M M n v z j j j 4.2                 ",
"                    L h.n n n v z k k k k ( B                   ",
"            @ F P -.>.*.o.) l.l j l f./ { E | T S Z o           ",
"        m D.F.e.q.>.;.&.X.[ ^ 2.1.~ ! T |  . . ...X.c.b f       ",
"      , S.D.A.i.;.&.%...T r.J.g.( ( ( R T  . .....6.N.B.N.=     ",
"      u A.Z.V.b.&.X.[ 0 I t.R.T.K.g.) { A 0 [ ..%.c.B.N.b t     ",
"      r V.B.M x O.U X # q.d.R.R.K.K.H.+.R + + Y 3.N.M c z <     ",
"        s c z d %     L w.I.U.U.K.J.H.8.} q     > g x j p       ",
"          * =         ;.>.s.U.U.K.H.H.<...%.        : *         ",
"                    # q.,.*.s.P.J.G.5.....%.O                   ",
"                    2 q.>.*...P } Y  .X...X.1                   ",
"                    5 q.>.%.} o   4 X.%.X.X.2                   ",
"                    5 ,.,.&.} X   4 ;.*.X.X.2                   ",
"                    = M.m.k.f..   & m.n.j.h &                   ",
"                          o                                     "
};
