/* XPM */
static char *result[] = {
/* columns rows colors chars-per-pixel */
"32 32 237 2 ",
"   c None",
".  c #1E1E1D",
"X  c #1F1E1D",
"o  c #1F1F1D",
"O  c #201F1E",
"+  c #21201E",
"@  c #22201E",
"#  c #23211E",
"$  c #23221F",
"%  c #25231F",
"&  c #26231F",
"*  c #2B261F",
"=  c #2B2721",
"-  c #2E2922",
";  c #312B21",
":  c #362F23",
">  c #3B3224",
",  c #4C402B",
"<  c #51432B",
"1  c #52432A",
"2  c #53442C",
"3  c #56482E",
"4  c #5E4D2D",
"5  c #6E5833",
"6  c #6B5835",
"7  c #6B5935",
"8  c #6C5834",
"9  c #6E5934",
"0  c #6F5934",
"q  c #705D37",
"w  c #735E38",
"e  c #776136",
"r  c #7A6138",
"t  c #806638",
"y  c #816639",
"u  c #876C3D",
"i  c #85763D",
"p  c #A17A3B",
"a  c #A47B3B",
"s  c #A47C3C",
"d  c #A57E3D",
"f  c #A47E3E",
"g  c #917642",
"h  c #957540",
"j  c #957942",
"k  c #937C40",
"l  c #977D45",
"z  c #9A7A41",
"x  c #987842",
"c  c #AE803B",
"v  c #AB803E",
"b  c #AA813F",
"n  c #AD813D",
"m  c #B1813C",
"M  c #B7873E",
"N  c #A18043",
"B  c #AE8440",
"V  c #B08540",
"C  c #B58842",
"Z  c #B78942",
"A  c #BA8B41",
"S  c #BC8940",
"D  c #BB8D42",
"F  c #BB8C43",
"G  c #BC8D43",
"H  c #BD8F43",
"J  c #BC8D44",
"K  c #B18E48",
"L  c #B38F4B",
"P  c #AE9548",
"I  c #AF944F",
"U  c #BE9045",
"Y  c #B3944E",
"T  c #B9944A",
"R  c #BF9750",
"E  c #C19043",
"W  c #C29243",
"Q  c #C09145",
"!  c #C29244",
"~  c #C39344",
"^  c #C09346",
"/  c #C19346",
"(  c #C59344",
")  c #C19447",
"_  c #C79444",
"`  c #C59745",
"'  c #C79645",
"]  c #CD9340",
"[  c #C99643",
"{  c #CB9643",
"}  c #CF9743",
"|  c #C89645",
" . c #C99646",
".. c #C89746",
"X. c #CE9744",
"o. c #C99847",
"O. c #CC9845",
"+. c #CD9845",
"@. c #C79D4F",
"#. c #CB9B48",
"$. c #CD9C4A",
"%. c #D09843",
"&. c #D49B43",
"*. c #D49B44",
"=. c #D69D44",
"-. c #C19F54",
";. c #CA9F50",
":. c #C3A24D",
">. c #CEA24D",
",. c #DEA147",
"<. c #DEA446",
"1. c #D3A04B",
"2. c #D7A349",
"3. c #D2A24D",
"4. c #D7A44F",
"5. c #D8A249",
"6. c #DAA74B",
"7. c #D8A24D",
"8. c #DCAB4F",
"9. c #DDAB4F",
"0. c #C6A455",
"q. c #C9A851",
"w. c #DCA850",
"e. c #DCB655",
"r. c #E1A94B",
"t. c #E0A94D",
"y. c #E7B04F",
"u. c #E5B54F",
"i. c #E0AF54",
"p. c #E6B354",
"a. c #E4B656",
"s. c #E7B852",
"d. c #EFBA51",
"f. c #E4B35A",
"g. c #E2B659",
"h. c #E4B459",
"j. c #E5B75D",
"k. c #EBB859",
"l. c #EEBD5A",
"z. c #EDB85C",
"x. c #F0B85A",
"c. c #F1BB5E",
"v. c #F4BC5C",
"b. c #EBC055",
"n. c #E8C15C",
"m. c #F5C35A",
"M. c #F3C45E",
"N. c #F7C65F",
"B. c #F8C35C",
"V. c #F9C25F",
"C. c #F8C45F",
"Z. c #F8C85C",
"A. c #F9C95F",
"S. c #F9CA5F",
"D. c #FEC95F",
"F. c #F9CC5F",
"G. c #FBD35F",
"H. c #F8D45F",
"J. c #F7C160",
"K. c #F9C260",
"L. c #F8C261",
"P. c #FAC360",
"I. c #FAC261",
"U. c #F9C162",
"Y. c #FAC362",
"T. c #F8C761",
"R. c #FEC560",
"E. c #FDC663",
"W. c #FEC762",
"Q. c #F7C860",
"!. c #F5CD66",
"~. c #F9CA61",
"^. c #FCC860",
"/. c #FEC962",
"(. c #FFC962",
"). c #FECB62",
"_. c #FECA63",
"`. c #FFCB63",
"'. c #FECC60",
"]. c #FECC62",
"[. c #FFCD63",
"{. c #FECF63",
"}. c #F9CA65",
"|. c #FFCB64",
" X c #FFCD64",
".X c #FFCC65",
"XX c #FFCF64",
"oX c #FFCF65",
"OX c #FFCC66",
"+X c #FAD063",
"@X c #FFD360",
"#X c #FDD063",
"$X c #FFD563",
"%X c #FDD064",
"&X c #FFD064",
"*X c #FFD164",
"=X c #FFD065",
"-X c #FFD165",
";X c #FED264",
":X c #FFD264",
">X c #FED265",
",X c #FFD265",
"<X c #FFD365",
"1X c #FFD166",
"2X c #FFD366",
"3X c #FFD465",
"4X c #FFD565",
"5X c #FED664",
"6X c #FFD466",
"7X c #FFD566",
"8X c #FFD467",
"9X c #FFD666",
"0X c #FED766",
"qX c #FFD766",
"wX c #FFD667",
"eX c #FFD767",
"rX c #FFDA63",
"tX c #FED964",
"yX c #FFD966",
"uX c #FFD867",
"iX c #FFD967",
"pX c #FFDA67",
"aX c #FFDC67",
"sX c #FFDE66",
"dX c #FBD369",
"fX c #FFD168",
"gX c #FED268",
"hX c #FED26A",
"jX c #FFD768",
"kX c #FFD968",
"lX c #FFDA68",
"zX c #FFDB68",
"xX c #FFDA6B",
"cX c #FFDC68",
"vX c #FFDF69",
"bX c #FFE066",
"nX c #FFE068",
/* pixels */
"                                                                ",
"                                                                ",
"                                                                ",
"                                                                ",
"                                                                ",
"                        - 2 r x r < =                           ",
"                    > h c.U.Y.E.OXfX}.j :                       ",
"                  5 z.I.L.K.J.W./.oX8XxX!.7                     ",
"              . 0 T._.(.P.V.v.x.V.).-X6XjXdXq                   ",
"              1 +X,X[.R.4.C c #.n U i.&X6XjXhX,                 ",
"            . q.iX3XC.J B A 5.:XD H Q 1.#X7X1X-.X               ",
"            4 nXeX].F V ! ] F.eXa.M ~ | t.4X<XgX3               ",
"            i vX9Xw.m &.<.d.kXuX0X[ =.*.%.Z.2X=Xg               ",
"            P cX,XS 5XcXzXkXuXuX9X9X7X<XD.r.7X=XI               ",
"            e.pX~.v 8.iXlXuXuXwX7X6X6X%X/ W 9X&X0.              ",
"            :.lXQ.B ' 9.9XqX9X7X6X<X{.^ d 2.uXXXY               ",
"            k pX;XG o.{ m.9X7X6X6X<X3.p Z s.uX Xl               ",
"            e yX6X7...X.S.6X6X6X,X-Xp.s _ H.7X|.6               ",
"            * n.9XA.+.} *X<XM.>.N.XX^.a u.aXXXj.$               ",
"              t 7X7XB.,.l.) d f b $.k.` bX6X.Xw                 ",
"              # T 7X9X'.y.( E  .O.6.b.tX6X`.R O                 ",
"                % K >X3X7X$X@XG.rXsXqX,X`.L @                   ",
"                    y g.*X,X<X<X,X&X`.f.u X                     ",
"                      & 9 N ;.h.@.z 8 &                         ",
"                              o                                 ",
"                                                                ",
"                                                                ",
"                                                                ",
"                                                                ",
"                                                                ",
"                                                                ",
"                                                                "
};
