/* XPM */
static char *result[] = {
/* columns rows colors chars-per-pixel */
"32 32 121 2 ",
"   c None",
".  c #201F1E",
"X  c #21201F",
"o  c #242321",
"O  c #292724",
"+  c #2B2924",
"@  c #2B2C28",
"#  c #322C23",
"$  c #322F29",
"%  c #333129",
"&  c #3B362C",
"*  c #3C3A2E",
"=  c #433D2E",
"-  c #493D2B",
";  c #423E33",
":  c #454234",
">  c #4C4433",
",  c #4C4739",
"<  c #4B4B3A",
"1  c #514A36",
"2  c #57533C",
"3  c #59513C",
"4  c #6C5E3E",
"5  c #705F3F",
"6  c #5D5846",
"7  c #695B40",
"8  c #6B6B4D",
"9  c #706749",
"0  c #74694C",
"q  c #7B6E4A",
"w  c #756C52",
"e  c #777050",
"r  c #787352",
"t  c #81734F",
"y  c #807450",
"u  c #857D57",
"i  c #84815F",
"p  c #8D835B",
"a  c #968355",
"s  c #988352",
"d  c #92845D",
"f  c #98865A",
"g  c #BF8E4A",
"h  c #9D8D64",
"j  c #998D6C",
"k  c #9B9163",
"l  c #9E966D",
"z  c #9E9968",
"x  c #A19264",
"c  c #AF9865",
"v  c #A6986C",
"b  c #B39C67",
"n  c #A79874",
"m  c #ABA26E",
"M  c #BEA46E",
"N  c #AAA373",
"B  c #AAAA73",
"V  c #B4A171",
"C  c #B9A776",
"Z  c #B0A972",
"A  c #B4AA7C",
"S  c #B9B578",
"D  c #D0A054",
"F  c #EAB45C",
"G  c #C1A76E",
"H  c #C4AC76",
"J  c #C4AE7C",
"K  c #C6B077",
"L  c #CEB275",
"P  c #C7B67F",
"I  c #CEBC7D",
"U  c #D7BC79",
"Y  c #D1C07D",
"T  c #DEC27B",
"R  c #E1CB7C",
"E  c #BBAE81",
"W  c #BEBE8A",
"Q  c #C2B383",
"!  c #CAB782",
"~  c #C7BD83",
"^  c #CCBA84",
"/  c #CBBB8B",
"(  c #D2BD84",
")  c #CFC18D",
"_  c #D6C187",
"`  c #DAC182",
"'  c #D7C289",
"]  c #DAC48A",
"[  c #D2C390",
"{  c #E2C885",
"}  c #E0C78B",
"|  c #E3CA8B",
" . c #E9CE8B",
".. c #EDD087",
"X. c #EDD28D",
"o. c #FFDB86",
"O. c #F2D48C",
"+. c #FBDA8C",
"@. c #E6CE90",
"#. c #E8CF91",
"$. c #E2DC95",
"%. c #E8DC93",
"&. c #F1D691",
"*. c #F5DA93",
"=. c #FBDD93",
"-. c #F9DE98",
";. c #FAE086",
":. c #FEE08D",
">. c #ECE697",
",. c #F2E097",
"<. c #FEE295",
"1. c #FFEB94",
"2. c #FEE59A",
"3. c #FFEC9D",
"4. c #FFF19D",
"5. c #F0DEA3",
"6. c #F9E3A0",
"7. c #FFEDA0",
"8. c #FFF3A2",
"9. c #FFFBA5",
"0. c #FFFFA9",
/* pixels */
"                                                                ",
"                                                                ",
"                                                                ",
"                    O y 8.9.9.9.8.7.&.: .                       ",
"                o %.0.0.0.0.0.9.9.8.7.7.5.C                     ",
"              & 0.0.0.0.0.0.9.0.9.9.8.7.5.-.] .                 ",
"              9.0.0.0.0.0.0.0.9.9.8.8.7.2.-.@.!                 ",
"            Y 9.0.0.0.0.0.0.9.8.8.8.8.7.7.-.@.' 3               ",
"            9.9.9.9.0.0.9.9.9.9.8.8.8.7.3.<.| _ P               ",
"          q 4.O.c z 9.9.9.9.8.8.4.7.3.3.! , 6 N ! O             ",
"          4.X.4 X X r >.9.4.4.4.7.3.3.2.%     @ v p             ",
"          4.M   .   X r 3.4.3.3.3.3.3.C     .   ; m             ",
"          4.1   . . X * ,.3.3.2.2.<.-.:     .   X u             ",
"        4 1.% . . . X @ I 1.2.<.<.-.| O .       . e X           ",
"        a 4.%       . o k 2.2.=.-.=.( X         X k +           ",
"        b 4.:     .   o K <.<.=.*.=.( # . .   . o m &           ",
"        f 9.8 .       * { =.=.*.O.O.| ; o       @ Z $           ",
"        X =.W +     X h <.<.J L  .*. .h O     O k N X           ",
"        . H O.S < * a =.=.=.M +.o.&.@.] C * 0 | A 2             ",
"          .  .O.+.+.=.<.=.=.=.*.&. .| ' ^ Q E A i               ",
"            o H  .O.+.=.+.*.O.&. .@.] ^ / / / n                 ",
"                %  .O.O.O.X. .@.] ( ( / / / o                   ",
"                  : O.0.,.w ( %.( 6 ( 6./ X                     ",
"                    ; 7.j O B ! j $ $.5.X                       ",
"                      R > X . + & + n 9                         ",
"                      ;.s 3 > + + : s ^                         ",
"                    4 1.1.:.:.R U ..( ^                         ",
"                      t O.O.X.] ^ Q E :                         ",
"                            X @ . .                             ",
"                                                                ",
"                                                                ",
"                                                                "
};
