/* XPM */
static char *result[] = {
/* columns rows colors chars-per-pixel */
"32 32 167 2 ",
"   c None",
".  c #1E1F1D",
"X  c #1E201D",
"o  c #1F211D",
"O  c #1F221D",
"+  c #21231D",
"@  c #20251D",
"#  c #21251D",
"$  c #21261D",
"%  c #22281C",
"&  c #23291C",
"*  c #23291D",
"=  c #252B1D",
"-  c #262F1D",
";  c #2E361B",
":  c #29321C",
">  c #2E321C",
",  c #2B351C",
"<  c #2E391C",
"1  c #33411C",
"2  c #344819",
"3  c #394C1C",
"4  c #3D5319",
"5  c #3E5519",
"6  c #3F5B19",
"7  c #466315",
"8  c #4B6E16",
"9  c #4C6D16",
"0  c #517616",
"q  c #527C12",
"w  c #5B7818",
"e  c #5A8015",
"r  c #65980C",
"t  c #689E0C",
"y  c #608216",
"u  c #659012",
"i  c #689016",
"p  c #6A9812",
"a  c #72AB07",
"s  c #7AB501",
"d  c #78B705",
"f  c #7EBD00",
"g  c #7FBF00",
"h  c #7FBE01",
"j  c #78A316",
"k  c #82BC0C",
"l  c #80C000",
"z  c #81C000",
"x  c #80C100",
"c  c #81C100",
"v  c #82C000",
"b  c #82C100",
"n  c #83C100",
"m  c #81C200",
"M  c #82C200",
"N  c #83C200",
"B  c #82C300",
"V  c #83C300",
"C  c #85C300",
"Z  c #81C500",
"A  c #82C400",
"S  c #83C400",
"D  c #84C400",
"F  c #86C500",
"G  c #84C700",
"H  c #86C600",
"J  c #87C600",
"K  c #86C700",
"L  c #87C700",
"P  c #87CD03",
"I  c #89C800",
"U  c #89C900",
"Y  c #8AC900",
"T  c #8ACA00",
"R  c #8BCB00",
"E  c #8BCC00",
"W  c #8CCC00",
"Q  c #8DCD00",
"!  c #8CCE00",
"~  c #86C008",
"^  c #8FDA06",
"/  c #92D300",
"(  c #93D400",
")  c #93D204",
"_  c #93D304",
"`  c #95D800",
"'  c #95DC00",
"]  c #98DB02",
"[  c #98DC00",
"{  c #99DC00",
"}  c #9BDC00",
"|  c #9ADD00",
" . c #9ADE00",
".. c #9BDE00",
"X. c #9BDF00",
"o. c #9CDF00",
"O. c #97E402",
"+. c #9BE000",
"@. c #9CE000",
"#. c #9DE000",
"$. c #9EE100",
"%. c #9EE300",
"&. c #9FE300",
"*. c #9BE902",
"=. c #9CE801",
"-. c #A1E700",
";. c #A1E900",
":. c #A2E800",
">. c #A3E900",
",. c #A1EB00",
"<. c #A5E900",
"1. c #A4EB00",
"2. c #A5EB00",
"3. c #A4F100",
"4. c #A7F200",
"5. c #A8F100",
"6. c #A8F200",
"7. c #A9F200",
"8. c #A8F300",
"9. c #AAF200",
"0. c #AAF300",
"q. c #ABF400",
"w. c #AAF600",
"e. c #ABF600",
"r. c #ACF400",
"t. c #ACF600",
"y. c #ADF600",
"u. c #ACF700",
"i. c #AFF700",
"p. c #ADF800",
"a. c #AEF800",
"s. c #AFFA00",
"d. c #B2F500",
"f. c #B5FA00",
"g. c #B3FD00",
"h. c #B6FF00",
"j. c #BAFE00",
"k. c #B1F209",
"l. c #B6F909",
"z. c #C2FF00",
"x. c #C4FF00",
"c. c #C6FF00",
"v. c #C7FF00",
"b. c #C7FF01",
"n. c #C8FF00",
"m. c #C9FF00",
"M. c #CAFF00",
"N. c #CBFF00",
"B. c #CCFF00",
"V. c #CDFF00",
"C. c #CEFF00",
"Z. c #CFFF00",
"A. c #CFFF01",
"S. c #CEFC02",
"D. c #C9FF04",
"F. c #D1FF00",
"G. c #D2FF00",
"H. c #D3FF00",
"J. c #D2FF01",
"K. c #D4FF00",
"L. c #D5FF00",
"P. c #D6FF00",
"I. c #D7FF00",
"U. c #D8FF00",
"Y. c #D9FF00",
"T. c #DAFF00",
"R. c #DBFF00",
/* pixels */
"                                                                ",
"                                                                ",
"                                                                ",
"                                                                ",
"                                                                ",
"                                                                ",
"                            O $ = * o                           ",
"                      ; i l.c.n.n.v.b.k.y >                     ",
"                    j A.v.c.n.n.v.m.m.v.m.7.9                   ",
"                  w K.I.Y.P.F.m.N.V.j.g.s.a.,.6                 ",
"                3 J.U.I.Y.U.G.B.V.B.h.p.t.r.q.=.,               ",
"              1 S.U.I.I.U.T.C.B.N.B.x.r.u.w.e.8.O.-             ",
"              D.L.I.U.I.T.U.B.B.V.B.M.y.q.9.0.0.3.^             ",
"            + G.U.Y.P.R.I.U.N.M.N.B.V.r.0.9.0.7.4.*.            ",
"              x.B.H.I.I.P.H.B.B.B.N.B.i.0.6.5.;.' P             ",
"              p >.f.z.x.Z.N.n.v.c.c.n.d.+.U K G Z q             ",
"              X ~ @.%.&.<.1.-.:.2.1.>.` M D S Z t               ",
"                o ) #.$.o.{ W E W R ! C N B A d O               ",
"                  < } X.$.&.R R W R R n m c h @                 ",
"                    4 @...&.Q T U T F B M l 2                   ",
"                      u ..o.( T Y U V b c 8                     ",
"                        k |  .R Y U v x r                       ",
"                        # _ X.T I H g a .                       ",
"                          % ] / J z s &                         ",
"                            5 [ L f :                           ",
"                              e L 7                             ",
"                                0                               ",
"                                                                ",
"                                                                ",
"                                                                ",
"                                                                ",
"                                                                "
};
