/* XPM */
static char *result[] = {
/* columns rows colors chars-per-pixel */
"32 32 92 1 ",
"  c None",
". c #222221",
"X c #2C2A2A",
"o c #343130",
"O c #3B3732",
"+ c #453826",
"@ c #4F3E29",
"# c #433C35",
"$ c #433E3B",
"% c #52412B",
"& c #48423C",
"* c #634C2F",
"= c #694E2D",
"- c #6C5432",
"; c #715734",
": c #755A35",
"> c #7D5D34",
", c #775C3B",
"< c #795F3F",
"1 c #474241",
"2 c #4D4741",
"3 c #554D45",
"4 c #584F47",
"5 c #5C5553",
"6 c #6E5A43",
"7 c #715B43",
"8 c #705D48",
"9 c #635A56",
"0 c #6A5F55",
"q c #655C59",
"w c #695F5B",
"e c #6B6057",
"r c #6C625D",
"t c #756454",
"y c #7C6954",
"u c #72665D",
"i c #75685D",
"p c #796A5D",
"a c #736760",
"s c #756962",
"d c #7C6F63",
"f c #7E7165",
"g c #856335",
"h c #896537",
"j c #876538",
"k c #8D6939",
"l c #956E3B",
"z c #986F3B",
"x c #97713E",
"c c #9A713C",
"v c #A47A3F",
"b c #AC7C3E",
"n c #836745",
"m c #8E6E46",
"M c #80664B",
"N c #846C4E",
"B c #896E4B",
"V c #8B7049",
"C c #9E7C47",
"Z c #8A7152",
"A c #977B53",
"S c #90795D",
"D c #AC7E41",
"F c #A47E4E",
"G c #817366",
"H c #847669",
"J c #8B7B6C",
"K c #9B805B",
"L c #AC8144",
"P c #A5814A",
"I c #B48545",
"U c #B88747",
"Y c #BA8A47",
"T c #BA8B49",
"R c #A78757",
"E c #A3855B",
"W c #A88859",
"Q c #BF985C",
"! c #C18F4A",
"~ c #C4924B",
"^ c #CB964C",
"/ c #CE994E",
"( c #D29B4D",
") c #C19755",
"_ c #CB9C52",
"` c #D19E51",
"' c #CFA053",
"] c #DCA451",
"[ c #DDAB59",
"{ c #E5AA53",
"} c #E2AE5A",
"| c #F3BA5F",
/* pixels */
"                                ",
"               .                ",
"               ...              ",
"           $5sfffss5$.          ",
"         $rKJJJGffffds2.        ",
"        5KJffffpfssusssq.       ",
"       &Kfffffffssssaara5.      ",
"      OJHfffffNyeyssrrrrr5      ",
"      0HGGGt<xxl*xx:8rrrwwX     ",
"    ..HGGdykgbIL>IIhv,wrww1     ",
"     &GffykDc^^Ij!!l!Inewww.    ",
"     3Gffnv^b^^Ij!!z~IDer5q.    ",
"     3dff>Y(b^^Ik!!l~TL6qwq.    ",
"     3fffL{{({{]Y{]~]](Vqqq.    ",
"     3ffd'|||QEWREK{}}[Aqqw.    ",
"     3ddd'|||Sei9eu)}}[Sqq5.    ",
"     3pffD``'TyCPBV)_~~yqqq.    ",
"     3Gfdg^^cYNl=mmgDID6qq9.    ",
"     3dddg^/D~FM7ZIjIYI7qqq.    ",
"     3fddg//b^~D,LLjYII6qq9.    ",
"     3fddj^/D^^IgIIkTTI6qqq.    ",
"     3dddg^/D^^Ij~~x~TI7qq5.    ",
"     3dfpg^(D/^Uk~~z~YI7qqq.    ",
"     4dffg^/D/^Uj~!x^YI7qq9.    ",
"     3fddg//D/^Uj~~c^YI6qqq.    ",
"     3dddg^/D^/Uk~!c~TI6qqq.    ",
"     3fpdg/(D//Uk~~x^YI6qqq.    ",
"     X&&3+-:@::=@;;%--*#&Oo     ",
"                                ",
"                                ",
"                                ",
"                                "
};
