/* XPM */
static char *result[] = {
/* columns rows colors chars-per-pixel */
"32 32 129 2 ",
"   c None",
".  c #21211F",
"X  c #1C1F21",
"o  c #1D2226",
"O  c #1C262B",
"+  c #1B292E",
"@  c #192732",
"#  c #1E2A30",
"$  c #122B3D",
"%  c #1B2E3E",
"&  c #1C313B",
"*  c #212121",
"=  c #262827",
"-  c #272A2D",
";  c #2C2B2A",
":  c #312F2D",
">  c #252D35",
",  c #22353F",
"<  c #2B3339",
"1  c #323232",
"2  c #32353A",
"3  c #3E3E3E",
"4  c #43423C",
"5  c #132E41",
"6  c #163244",
"7  c #193546",
"8  c #1B3A47",
"9  c #173449",
"0  c #1A3748",
"q  c #1C3B4B",
"w  c #1D3E51",
"e  c #243542",
"r  c #273843",
"t  c #2B3947",
"y  c #243B4C",
"u  c #343E42",
"i  c #313D48",
"p  c #1F404E",
"a  c #1F4153",
"s  c #23414E",
"d  c #2B414D",
"f  c #39434B",
"g  c #224251",
"h  c #2A4657",
"j  c #2F4852",
"k  c #324451",
"l  c #3D4C54",
"z  c #354B58",
"x  c #3D5159",
"c  c #424242",
"v  c #4B4944",
"b  c #41494F",
"n  c #4B4B4C",
"m  c #434D55",
"M  c #465256",
"N  c #495456",
"B  c #44555B",
"V  c #4C585E",
"C  c #555552",
"Z  c #565758",
"A  c #535A59",
"S  c #5C5D5D",
"D  c #615F58",
"F  c #65635C",
"G  c #69655C",
"H  c #4C5660",
"J  c #4C5C62",
"K  c #535D61",
"L  c #536164",
"P  c #5C6364",
"I  c #5C6768",
"U  c #656667",
"Y  c #646966",
"T  c #6E6F65",
"R  c #6C6D6D",
"E  c #6D726A",
"W  c #757062",
"Q  c #72716D",
"!  c #7C7C6F",
"~  c #6E6F71",
"^  c #747473",
"/  c #777872",
"(  c #7A7B74",
")  c #74777A",
"_  c #7B7B7C",
"`  c #807D75",
"'  c #818277",
"]  c #84837D",
"[  c #89867B",
"{  c #8E8879",
"}  c #918D7F",
"|  c #99927D",
" . c #7E8181",
".. c #7A858A",
"X. c #828383",
"o. c #888783",
"O. c #8A8881",
"+. c #868788",
"@. c #8B8B8B",
"#. c #908F8D",
"$. c #969287",
"%. c #91908D",
"&. c #9A958A",
"*. c #9E9A8E",
"=. c #949391",
"-. c #9D9B95",
";. c #A49E8C",
":. c #A29D90",
">. c #A9A38E",
",. c #A6A296",
"<. c #ACA693",
"1. c #A6A49C",
"2. c #ADA99C",
"3. c #B2AB94",
"4. c #B4AE9B",
"5. c #BCB49E",
"6. c #ABA8A2",
"7. c #ABA9A9",
"8. c #B2AFA2",
"9. c #B5B1A4",
"0. c #BBB5A3",
"q. c #BFB8A3",
"w. c #BAB8B2",
"e. c #C2BBA3",
"r. c #C3BDAB",
"t. c #C3BFB3",
"y. c #C7C0AC",
"u. c #CAC3AC",
"i. c #C9C3B1",
/* pixels */
"                                                                ",
"                                                                ",
"                                                                ",
"                              . F v                             ",
"                              4 e.w.=                           ",
"              v :         X # I  ...J #         . : :           ",
"            . ;.e.2.' G E p p p a a a a z ` G { <.8.S           ",
"              W e.u.u.4.L p p x L J h a h _ y.r.9.=.3           ",
"              4 e.e.e.' g s / 4.9.6.-.J w z &.8.-.X.* X         ",
"              ; 3.3.' j g L 4.u.4.=.7.O.y 0 l X.X.R             ",
"              : | T d p p ( 5.0.8.%.#.X.k 0 9 i R ^             ",
"              = N s p p s I <.0.6.=.@.^ 8 0 9 9 y f             ",
"              u 8 p p p p j [ >.:.$.] V 0 6 6 5 6 y Z           ",
"              & d F E j p p g B P K g q 0 0 m I H 6 <           ",
"              & ! 3.>.} s p p 8 q q q 0 9 A o.%.+.i @           ",
"              u e.u.u.>.M p 8 8 0 q 0 0 6 ( 8.i.t.) @           ",
"              T u.y.q.2./ p q 0 0 0 0 0 l ] r.i.i.8.>           ",
"            * *.2.1.1.-./ 7 q 7 0 0 6 6 m o.8.9.9.9.C           ",
"              - R +.@.$.P 7 0 7 0 6 6 5 i ) %.@.+.m *           ",
"              * u P R Q d 7 0 6 6 6 6 $ 5 Z ~ ~ f f             ",
"              o Z , r 7 9 6 6 % 6 $ 5 $ $ 5 e % i S             ",
"              : Q S % $ $ 7 N U E Y m t $ $ $ e R _ X           ",
"              c ) ] S & $ Z ` :.,.#._ U % $ t ~ X. .1           ",
"              S _  .^ n e b $.e.0.-.@.R % i S  .+. .c           ",
"              n c ;       o Z 4.0.=.~ 2 X *   * 2 n 4           ",
"                            * D 9.X.;                           ",
"                              * [ 3                             ",
"                                *                               ",
"                                                                ",
"                                                                ",
"                                                                ",
"                                                                "
};
