/* XPM */
static char *result[] = {
/* columns rows colors chars-per-pixel */
"64 64 160 2 ",
"   c #040606",
".  c #141616",
"X  c #242525",
"o  c #323535",
"O  c #434444",
"+  c #626363",
"@  c #727373",
"#  c #C71E25",
"$  c #C91F27",
"%  c #CD222A",
"&  c #C2232F",
"*  c #CB2C32",
"=  c #D52731",
"-  c #DB2B37",
";  c #E02E3C",
":  c #B62E42",
">  c #B1334C",
",  c #AB3856",
"<  c #DB3C56",
"1  c #DF3F58",
"2  c #D33F5D",
"3  c #EC3545",
"4  c #E53240",
"5  c #F03849",
"6  c #E53A50",
"7  c #E83C50",
"8  c #C63F62",
"9  c #9F4469",
"0  c #9D477C",
"q  c #B1446C",
"w  c #BC4B75",
"e  c #D5565B",
"r  c #F14454",
"t  c #F2515F",
"y  c #CF4767",
"u  c #F35E6B",
"i  c #E85F71",
"p  c #D96469",
"a  c #F46976",
"s  c #BEBA3F",
"d  c #E5DB1A",
"f  c #D3CD3B",
"g  c #DCD437",
"h  c #D2CA2D",
"j  c #BFBA40",
"k  c #ACAA52",
"l  c #A1A05B",
"z  c #8E906E",
"x  c #979864",
"c  c #999965",
"v  c #91926F",
"b  c #848877",
"n  c #878978",
"m  c #C1BE5C",
"M  c #C8C348",
"N  c #D3CD47",
"B  c #DDD644",
"V  c #D1CC5E",
"C  c #DCD656",
"Z  c #CBC753",
"A  c #E4DD4C",
"S  c #E4DD58",
"D  c #D3CE6D",
"F  c #D9D366",
"G  c #DED965",
"H  c #E4DF7E",
"J  c #E4DE71",
"K  c #EFE870",
"L  c #F0EB7F",
"P  c #E7E168",
"I  c #373D9D",
"U  c #383D9D",
"Y  c #38429F",
"T  c #3943A1",
"R  c #3E49A5",
"E  c #6D529D",
"W  c #775097",
"Q  c #5E679C",
"!  c #7B7F80",
"~  c #71778A",
"^  c #676F93",
"/  c #62699E",
"(  c #6B7195",
")  c #727998",
"_  c #424AA6",
"`  c #444EA9",
"'  c #4651AB",
"]  c #4A56AF",
"[  c #4E58AF",
"{  c #545EA6",
"}  c #5156AD",
"|  c #5C55A6",
" . c #4C57B0",
".. c #4F59B1",
"X. c #5257B0",
"o. c #565AB2",
"O. c #605EAD",
"+. c #5861A7",
"@. c #5861A8",
"#. c #5761B6",
"$. c #5D65B8",
"%. c #5A63B7",
"&. c #7464AC",
"*. c #626ABB",
"=. c #7A68B0",
"-. c #6C75BE",
";. c #8F5387",
":. c #9F5389",
">. c #814E90",
",. c #835D9A",
"<. c #925D99",
"1. c #AD5485",
"2. c #A5578C",
"3. c #8E65A4",
"4. c #9F79A6",
"5. c #F57682",
"6. c #7E8182",
"7. c gray51",
"8. c #929292",
"9. c #A1A2A2",
"0. c #B0B1B1",
"q. c #DF8084",
"w. c #F5838D",
"e. c #F68F99",
"r. c #F79098",
"t. c #C398B8",
"y. c #F79BA4",
"u. c #F8A8AF",
"i. c #FAB4BB",
"p. c #EEE989",
"a. c #F0EB8B",
"s. c #E3E096",
"d. c #F4EF9B",
"f. c #E6E4B7",
"g. c #8D89C2",
"h. c #99A0D2",
"j. c #A5ABD7",
"k. c #BFC2E5",
"l. c #C0C1C1",
"z. c #CECEC2",
"x. c #D0D0D0",
"c. c gray87",
"v. c #FAC1C6",
"b. c #F1C7C8",
"n. c #FBCDD1",
"m. c #FCD9DD",
"M. c #E3E2D4",
"N. c #F0EFCE",
"B. c #DBD8EA",
"V. c #DDDFF0",
"C. c #DFE0E0",
"Z. c #E4E4E3",
"A. c #EDEDEC",
"S. c #FBE5E6",
"D. c #FCFAE2",
"F. c #F1F1F0",
"G. c #FEF2F4",
"H. c #FFFFFF",
"J. c #F6F6F9",
"K. c None",
/* pixels */
"K.K.K.K.K.K.K.K.K.K.K.K.K.K.K.K.K.K.K.K.K.K.K.K.K.K.K.K.K.K.K.K.K.K.K.K.K.K.K.K.K.K.K.K.K.K.K.K.K.K.K.K.K.K.K.K.K.K.K.K.K.K.K.K.",
"K.K.K.K.K.K.K.K.K.K.K.K.K.K.K.K.K.K.K.K.K.K.K.K.K.K.K.K.K.K.K.d d K.K.K.K.K.K.K.K.K.K.K.K.K.K.K.K.K.K.K.K.K.K.K.K.K.K.K.K.K.K.K.",
"K.K.K.K.K.K.K.K.K.K.K.K.K.K.K.K.K.K.K.K.K.K.K.K.K.K.K.K.K.K.K.d d K.K.K.K.K.K.K.K.K.K.K.K.K.K.K.K.K.K.K.K.K.K.K.K.K.K.K.K.K.K.K.",
"K.K.K.K.K.K.K.K.K.K.K.K.K.K.K.K.K.K.K.K.K.K.K.K.K.K.K.K.K.K.d d d d K.K.K.K.K.K.K.K.K.K.K.K.K.K.K.K.K.K.K.K.K.K.K.K.K.K.K.K.K.K.",
"K.K.K.K.K.K.K.K.K.K.K.K.K.K.K.K.K.K.K.K.K.K.K.K.K.K.K.K.K.d d d d d K.K.K.K.K.K.K.K.K.K.K.K.K.K.K.K.K.K.K.K.K.K.K.K.K.K.K.K.K.K.",
"K.K.K.K.K.K.K.K.K.K.K.K.K.K.K.K.K.K.K.K.K.K.K.K.K.K.K.K.K.d d d d d d d K.K.K.K.K.K.K.K.K.K.K.K.K.K.K.K.K.K.K.K.K.K.K.K.K.K.K.K.",
"K.K.K.K.K.K.K.K.K.K.K.K.K.K.K.K.K.K.K.K.K.K.K.K.K.K.K.K.d d d d d d d d K.K.K.K.K.K.K.K.K.K.K.K.K.K.K.K.K.K.K.K.K.K.K.K.K.K.K.K.",
"K.K.K.K.K.K.K.K.K.K.K.K.K.K.K.K.K.K.K.K.K.K.K.K.K.K.K.K.d d d d d d d d K.K.K.K.K.K.K.K.K.K.K.K.K.K.K.K.K.K.K.K.K.K.K.K.K.K.K.K.",
"K.K.K.K.K.K.K.K.K.K.K.K.K.K.K.K.K.K.K.K.K.K.K.K.K.K.K.K.d d d d d d d d K.K.K.K.K.K.K.K.K.K.K.K.K.K.K.K.K.K.K.K.K.K.K.K.K.K.K.K.",
"K.K.K.K.K.K.K.K.K.Y Y Y K.K.K.K.K.K.K.K.K.K.K.K.K.K.K.K.K.d d d d d d K.K.K.K.K.K.K.K.K.K.K.K.K.K.K.K.K.K.K.K.K.K.K.K.K.K.K.K.K.",
"K.K.K.T T T T T T T T T T T T T T K.K.K.K.K.K.K.K.K.K.K.../ k d d j +.X.....K.K.K.K.K.K.K.K.K.K.K.K.T T T T T T T T T K.K.K.K.K.",
"K.K.T T T T T T T T R _ ` ` ` ` _ T T K.K.K.K.K.K.K.K.....X...+.( ..............K.K.K.K.K.K.K.T T T T T T T T T T T T T T T K.K.",
"K.K.K.K.T T T T } o.o.o.o.o.o.o.o.o.] _ K.K.K.K.K.K...............................K.K.K.K.T _ ' } o.o.o.X.} } _ _ T T T T T K.K.",
"K.K.K.K.K.K.T T T _ } o.o.o.o.o.o.o.o.} R K.K.K.K... .#.+.6.....+./ b { .... .......K.K._ ] o.o.o.o.o.o.o.o.o.} T Y T K.K.K.K.K.",
"K.K.K.K.K.T T T T _ } } o.o.o.o.o.o.o.o.o.R K.K.........+... . .Q { l ^ Q Q  .] ....K.K.} o.o.o.o.o.o.o.o.} _ T T T T K.K.K.K.K.",
"K.K.K.K.K.K.T U I _ _ o.o.o.o.o.o.o.o.o.o.] K.[ ..+...( /  .z Q  .{  . .{ { { ! ] ] ] ' X.o.o.o.o.o.o.o.o.X.' T T T T T K.K.K.K.",
"K.K.K.K.K.K.T T T _ } o.o.o.o.o.o.o.o.o.o.o.' X.+......... .[ Q +.Q @ m g g k Q ] ] ] o.o.o.o.o.o.o.o.o.o.} _ T T T K.K.K.K.K.K.",
"K.K.K.K.T T T T T o.X.} } o.o.o.o.o.o.o.o.O.X.X./ X.v F K Z 6. .] x p.z.M.H.N.N ^ ] ] ] o.o.o.o.o.o.o.o.o.o.o._ T T T T K.K.K.K.",
"K.K.K.K.T T T T T T T T R X.o.o.o.o.o.o.o.X.X.....c d.H.9.@ D ) Q K @ X 9.x.H.D.f ~ ] ] o.o.o.o.o.o.o.} _ _ ' ` T T T T T K.K.K.",
"K.K.K.T T T K.K.K.T T T ' o.o.o.o.o.o.o.o.....n +.F H.x.l.o + j l f.  . x.7.H.H.K ^ ^  . .o.o.o.o.o.o.X.T U _ T Y T T T T K.K.K.",
"K.K.K.K.K.K.K.K.K.K.T T _ T ] ] _ ' o.X. ......./ a.H.F.X   8.C k N.O     9.H.H.p.~ ] ] ] o.o.} X.o.' ' _ T T K.K.K.K.K.K.K.K.K.",
"K.K.K.K.K.K.K.K.K.T T T Y Y Y T T `  .T  .X.@.@.X.C J.H.C.x.F.m l f.C.0.l.H.H.H.P ~ ! ] ]  .o.T T _ _ T T T T U K.K.K.K.K.K.K.K.",
"K.K.K.K.K.K.K.K.T T T T T T T T T ` T R ....k n ] z s.A.F.A.L b ~ C Z.H.H.H.J.M.N ] z Q ]  .` _ T T T T T T T _ K.K.K.K.K.K.K.K.",
"K.K.K.K.K.K.K.K.K.K.K.U T Y K.K.T T T ] ......X.Q ] x V J C z ]  .x K M.Z.Z.f.g ^ Q c Q ] ] ` R T T T T T T K.K.K.K.K.K.K.K.K.K.",
"K.K.K.K.K.K.K.K.K.K.K.K.K.K.K.K.T T _ X.......+.@.] @.b ] ] ] x ] ] b M B B j Q Q { ] ] ^ ] ' T K.K.K.K.T K.K.K.K.K.K.K.K.K.K.K.",
"K.K.K.K.K.K.K.K.K.K.K.K.K.K.K.K.T T K. ...X.....] ] ] { ] ] ^ ] @.] ] ] +.[ ] ) j.B.G.i q | ] R T K.K.K.K.K.K.K.K.K.K.K.K.K.K.K.",
"K.K.K.K.K.K.K.K.K.K.K.K.K.K.K.K.T K.X.X.....X.] ] ] { ] ^ ] ] ] ] 6.Q ] s { h.J.H.H.G.5 5 < | ` T K.K.K.K.K.K.K.K.K.K.K.K.K.K.K.",
"K.K.K.K.K.K.K.K.K.K.K.K.K.K.K.K.K.R ........X.] ] { ] ] x ] { l ] ] ] Q { y v.H.H.H.n.5 5 5 0 ' K.K.K.K.K.K.K.K.K.K.K.K.K.K.K.K.",
"K.K.K.K.K.K.K.K.K.K.K.K.K.K.K.K.T ' } W >.E ] ] ] ] ] @.] ]  .{ ] ] ] g.6 5 e.H.H.H.v.5 5 5 8 ] _ K.K.K.K.K.K.K.K.K.K.K.K.K.K.K.",
"K.K.K.K.K.K.K.K.K.K.K.K.K.K.T T T  .| 5 5 5 7 t.h.-.] ] ] ] ] ] O.h.V.m.3 3 u H.H.H.y.5 5 5 2 ] ` T K.K.K.K.K.K.K.K.K.K.K.K.K.K.",
"K.K.K.K.K.K.K.K.K.K.K.K.K.T T T K...o.y 5 5 5 y.H.H.w.< y 8 2 6 u H.H.n.5 5 5 n.H.H.w.5 5 5 w ] ' T T K.K.K.K.K.K.K.K.K.K.K.K.K.",
"K.K.K.K.K.K.K.K.K.K.K.K.T T T K.K.....:.5 5 5 r G.S.5 5 3 3 3 5 5 u.H.y.5 5 5 e.H.H.5.5 5 5 &.] ] T T T K.K.K.K.K.K.K.K.K.K.K.K.",
"K.K.K.K.K.K.K.K.K.K.K.T T T K.K..... .%.y 5 5 5 5.t 5 - $ # = 3 5 5 i.a 5 5 5 r G.H.t 5 5 1...] ] K.K.T T K.K.K.K.K.K.K.K.K.K.K.",
"K.K.K.K.K.K.K.K.K.K.T T T K.K.K.........*.2.5 5 5 5 = # # i = = ; 5 5 4 = % = 3 e.e.5 7 2.X.] ] ] ] K.K.T T K.K.K.K.K.K.K.K.K.K.",
"K.K.K.K.K.K.K.K.K.K.T T K.K.K.K......... .#.<.1 5 - $ $ # m.l = # $ % # # # # # - 3 y -...]  .] ] ] K.K.K.T T K.K.K.K.K.K.K.K.K.",
"K.K.K.K.K.K.K.K.K.T T K.K.K.K.K..... . . .]  .*.3.q & $ e G.b.& # # # # # # # & 9 ( $. . .] ] ] ] ] K.K.K.K.T T K.K.K.K.K.K.K.K.",
"K.K.K.K.K.K.K.K.K.T K.K.K.K.K........... .] ] ]  .o.*.,.4.k.V., : : > , 9 ;.=.*.#. .] ] ] ] ] ] ] ] K.K.K.K.Y T K.K.K.K.K.K.K.K.",
"K.K.K.K.K.K.K.K.T T K.K.K.K.K...........] ] ] ]  . . . .#.#.#.%.*.$.%.%.#...] ] ] ] ] ] ] ] ] ] ]  .K.K.K.K.T T T K.K.K.K.K.K.K.",
"K.K.K.K.K.K.T T T T T T K.K.K...........] ] ] ] ] ]  . .] ] ] ]  . .] ] ]  .] ] ] ] ] ] ] ] ] ] ] ] K.K.K.T T T T T T K.K.K.K.K.",
"K.K.K.K.K.K.T T T T T T K.K.K.X.........] ] ] ] ] ]  . .] ] ] ] ] ] ] ] ] ] ] ] ] ] ] ] ] ] ] ] ] ]  .K.T T T T T T T K.K.K.K.K.",
"K.K.K.K.K.K.T T T T T T K.K.K........... .] ] ] ] ] ] ] ] ] ] ] ] ] ] ] ] ] ] ] ] ] ] ] ] ] ] ] ] ] ] K.T T T T T T T K.K.K.K.K.",
"K.K.K.K.K.K.T T T T T K.K.K.K........... .] ]  .] ] ] ] ] ] ] ]  .] ] ] ] ] ] ] ] ] ] ] ] ] ] ] ] ] ] K.K.T T T T T T K.K.K.K.K.",
"K.K.K.K.K.K.T T T T T R K.K.K...........] ] ] ] ] ] ] ] ] ] ] ] ] ] ] ] ] ] ] ] ] ] ] ] ] ] ] ] ] ] ] K.K.T T K.Y T T K.K.K.K.K.",
"K.K.K.K.K.K.K.K.K.K.K.K.K.K.K...........] ]  .] ] ] ] ] ] ] ]  .] ] ] ] ] ] ] ] ] ] ] ] ] ] ] ]  .] ] K.K.K.K.K.K.K.K.K.K.K.K.K.",
"K.K.K.K.K.K.K.K.K.K.K.K.K.K.K......... .] ] ] ] ] ] ] ] ] ] ] ] ]  .] ] ]  .] ] ] ] ] ]  .]  .] ] ] ] K.K.K.K.K.K.K.K.K.K.K.K.K.",
"K.K.K.K.K.K.K.K.K.K.K.K.K.K.K.K......... .] ] ] ] ] ] ] ] ] ] ] ] ] ]  .] ] ] ] ] ] ] ] ] ] ] ] ] ] ] K.K.K.K.K.K.K.K.K.K.K.K.K.",
"K.K.K.K.K.K.K.K.K.K.K.K.K.K.K.K.........] ] ] ] ] ] ] ] ] ] ] ] ] ] ] ] ] ] ] ] ] ] ]  .]  . .] ]  .' K.K.K.K.K.K.K.K.K.K.K.K.K.",
"K.K.K.K.K.K.K.K.K.K.K.K.K.K.K.K..... . . .] T ] ] ] ] ] ] ] ] ] ]  .] ] ] ] ] ] R ] R  . . .] ] ] ' T K.K.K.K.K.K.K.K.K.K.K.K.K.",
"K.K.K.K.K.K.K.K.K.K.K.K.K.K.K.K.K.....X...] R ' T '  . .' ] ] ] ] ] ] ] ' ]  .R R  .T ]  .] ] ] ] T T T K.K.K.K.K.K.K.K.K.K.K.K.",
"K.K.K.K.K.K.K.K.K.K.K.K.K.K.K.K.K.K.......` R ' T ' ' ` ' ] ] ] ] ] ] ] R ] ' R T ' T ] ] ] ] ` T T T T T K.K.K.K.K.K.K.K.K.K.K.",
"K.K.K.K.K.K.K.K.K.K.K.K.K.K.K.K.K.K.K.[ ..` R T T T T R ] ] ] ] ] ] ] ] ' R T R T R T ' ] _ T T T T T T T T K.K.K.K.K.K.K.K.K.K.",
"K.K.K.K.K.K.K.K.K.K.K.K.K.K.K.K.K.K.K.K.K.R T T T T T R ] ] ] ] ] ]  . . .T T T T T T T T T T T T T T T T T T T K.K.K.K.K.K.K.K.",
"K.K.K.K.K.K.K.K.K.K.K.K.K.K.K.K.K.K.K.K.K.K.T T T T T ] .. ... . . . . ._ T T T T T T Y U T T T T T T T T T T T T K.K.K.K.K.K.K.",
"K.K.K.K.K.K.K.K.K.K.K.K.K.K.K.K.K.K.K.K.K.K.T T T T T K.K.K.K.K.K.K.K.K.K.K.T T T T T I I U U T T T T T T T T T T T K.K.K.K.K.K.",
"K.K.K.K.K.K.K.K.K.K.K.K.K.K.K.K.K.K.K.K.K.K.T T T T T K.K.K.K.K.K.K.K.K.K.K.T T T T T I U I U U Y Y T T T T T T T T T K.K.K.K.K.",
"K.K.K.K.K.K.K.K.K.K.K.K.K.K.K.K.K.K.K.K.K.K.Y T T T T K.K.K.K.K.K.K.K.K.K.K.T T T T I I I U U U I U I U I T T T T T T T K.K.K.K.",
"K.K.K.K.K.K.K.K.K.K.K.K.K.K.K.K.K.K.K.K.K.K.K.T T T T K.K.K.K.K.K.K.K.K.K.K.T T T T K.K.K.I U I U U U U U U U U I T T T K.K.K.K.",
"K.K.K.K.K.K.K.K.K.K.K.K.K.K.K.K.K.K.K.K.K.K.K.K.T T T K.K.K.K.K.K.K.K.K.K.T T T T K.K.K.K.K.K.K.K.K.K.K.K.K.K.K.K.U U T K.K.K.K.",
"K.K.K.K.K.K.K.K.K.K.K.K.K.K.K.K.K.K.K.Y T T T T T T T K.K.K.K.K.K.K.K.K.K.T T T T T T T T T K.K.K.K.K.K.K.K.K.K.K.K.K.T K.K.K.K.",
"K.K.K.K.K.K.K.K.K.K.K.K.K.K.K.K.T T T T T T T T T T T T K.K.K.K.K.K.K.K.K.T T T T T T T T T T T T K.K.K.K.K.K.K.K.K.K.K.K.K.K.K.",
"K.K.K.K.K.K.K.K.K.K.K.K.K.K.T T T T T T T T T T T T T T K.K.K.K.K.K.K.K.K.T T T T T T T T T T T T T K.K.K.K.K.K.K.K.K.K.K.K.K.K.",
"K.K.K.K.K.K.K.K.K.K.K.K.K.K.Y T T T T T T T T T T T T T K.K.K.K.K.K.K.K.K.T T T T T T T T T T T T T K.K.K.K.K.K.K.K.K.K.K.K.K.K.",
"K.K.K.K.K.K.K.K.K.K.K.K.K.K.K.K.K.Y T T Y T T T T Y K.K.K.K.K.K.K.K.K.K.K.K.K.T T T T T Y T T K.K.K.K.K.K.K.K.K.K.K.K.K.K.K.K.K.",
"K.K.K.K.K.K.K.K.K.K.K.K.K.K.K.K.K.K.K.K.K.T T Y K.K.K.K.K.K.K.K.K.K.K.K.K.K.K.K.K.T T K.K.K.K.K.K.K.K.K.K.K.K.K.K.K.K.K.K.K.K.K."
};
