/* XPM */
static char *result[] = {
/* columns rows colors chars-per-pixel */
"32 32 67 1 ",
"  c None",
". c #201F1F",
"X c #21211F",
"o c #1C1F22",
"O c #1C2125",
"+ c #15222D",
"@ c #1B242A",
"# c #1C292E",
"$ c #0E2535",
"% c #0F2739",
"& c #0F283A",
"* c #122534",
"= c #192732",
"- c #1B2B35",
"; c #102739",
": c #112A3C",
"> c #1B2E3F",
", c #17323E",
"< c #1F303A",
"1 c #222222",
"2 c #282828",
"3 c #312F2D",
"4 c #252D35",
"5 c #2B3339",
"6 c #333332",
"7 c #3C3C3C",
"8 c #132E40",
"9 c #163244",
"0 c #193645",
"q c #1C3946",
"w c #17354C",
"e c #193749",
"r c #1C3C4C",
"t c #1D3E51",
"y c #223A4C",
"u c #213F51",
"i c #1F404F",
"p c #1F4152",
"a c #20404D",
"s c #39434B",
"d c #204252",
"f c #314150",
"g c #434343",
"h c #4B4B4C",
"j c #444D56",
"k c #545350",
"l c #565758",
"z c #5D5D5C",
"x c #4C5660",
"c c #6B6C6C",
"v c gray44",
"b c #74777A",
"n c #79797A",
"m c #838078",
"M c #7F8080",
"N c #838384",
"B c #888785",
"V c #868788",
"C c #999485",
"Z c #959491",
"A c #9C9A95",
"S c #ADA797",
"D c #B2AD9F",
"F c #B3AFA5",
"G c #B6B2A5",
"H c #C3BFB3",
"J c #C9C3B1",
/* pixels */
"                                ",
"                                ",
"                                ",
"                                ",
"                                ",
"               X                ",
"             O<yady>o.          ",
"           @qpddddppu0          ",
"         .#ydddpputttteO        ",
"         #adddddptrrwrteo       ",
"        Xridddddtptrreee>.      ",
"        -idaddppprrrew9ewO      ",
"        qiiiippitprre0988=      ",
"       Oqiiipipprrrr098:8>      ",
"       #qiiiiirprrrew98;:8o     ",
"       =qqqiiirrrreee8::%:o     ",
"       #0qqrrrrrree0888;%;o     ",
"       @0qrrrrrree098::%$*      ",
"       o,0qqeeee00998:%%$+o     ",
"        -,00ee0e999:8:;%$o      ",
"        O,,9e0009888&&%$o       ",
"         @,,888888888&%$o       ",
"          +:88888&8&%%$ooo      ",
"           O;%%:&8&&%*o         ",
"             o+;;:;oo           ",
"             o    o             ",
"                                ",
"                                ",
"                                ",
"                                ",
"                                ",
"                                "
};
